<?xml version="1.0" encoding="utf-8"?>
<!-- Generator: Adobe Illustrator 16.0.4, SVG Export Plug-In . SVG Version: 6.00 Build 0)  -->
<!DOCTYPE svg PUBLIC "-//W3C//DTD SVG 1.1//EN" "http://www.w3.org/Graphics/SVG/1.1/DTD/svg11.dtd">
<svg version="1.1" xmlns="http://www.w3.org/2000/svg" xmlns:xlink="http://www.w3.org/1999/xlink" x="0px" y="0px"
	 width="180.001px" height="180px" viewBox="0 0 180.001 180" style="enable-background:new 0 0 180.001 180;" xml:space="preserve"
	>
<style type="text/css">
<![CDATA[
	.st0{display:inline;fill:none;stroke:#FCD4E5;stroke-miterlimit:10;}
	.st1{fill:#1E120B;}
	.st2{fill:#8B5E3C;}
	.st3{fill:#BCF1FF;}
	.st4{fill:#BEEEFA;}
	.st5{display:inline;fill:none;stroke:#FCD4E5;stroke-width:0.5;stroke-miterlimit:10;}
	.st6{display:inline;fill:#FFFFFF;}
	.st7{fill:url(#SVGID_1_);}
	.st8{fill:#C49A6C;}
	.st9{display:inline;fill:none;stroke:#EFE6EA;stroke-width:0.5;stroke-miterlimit:10;}
	.st10{fill:#603913;}
	.st11{opacity:0.4;}
	.st12{opacity:0.6;}
	.st13{display:inline;}
	.st14{fill:#9EE5F8;}
	.st15{fill:#07495A;}
	.st16{fill:#3C2415;}
	.st17{display:none;}
	.st18{fill:#754C29;}
	.st19{fill:#A4D3DF;}
	.st20{fill:#A97C50;}
]]>
</style>
<g id="Layer_1" class="st17">
	<circle class="st9" cx="45" cy="45" r="45"/>
	<circle class="st9" cx="135" cy="45" r="45"/>
	<circle class="st9" cx="45" cy="134.999" r="45"/>
	<circle class="st9" cx="135" cy="134.999" r="45"/>
	<line class="st5" x1="180" y1="0" x2="0" y2="180"/>
	<line class="st5" x1="0" y1="0" x2="180" y2="180"/>
	<rect class="st0" width="180" height="180"/>
	<line class="st0" x1="180" y1="0" x2="180" y2="180"/>
	<line class="st5" x1="168" y1="0" x2="168" y2="180"/>
	<line class="st5" x1="12" y1="0" x2="12" y2="180"/>
	<line class="st5" x1="42" y1="0" x2="42" y2="180"/>
	<line class="st5" x1="54" y1="0" x2="54" y2="180"/>
	<line class="st0" x1="0" y1="0" x2="0" y2="180"/>
	<line class="st5" x1="138" y1="0" x2="138" y2="180"/>
	<line class="st5" x1="126" y1="0" x2="126" y2="180"/>
	<line class="st5" x1="90" y1="0" x2="90" y2="180"/>
	<line class="st0" x1="180.001" y1="180" x2="0" y2="180"/>
	<line class="st5" x1="180.001" y1="168" x2="0" y2="168"/>
	<line class="st5" x1="180.001" y1="12" x2="0" y2="12"/>
	<line class="st5" x1="180.001" y1="42" x2="0" y2="42"/>
	<line class="st5" x1="180.001" y1="54" x2="0" y2="54"/>
	<line class="st0" x1="180.001" y1="0" x2="0" y2="0"/>
	<line class="st5" x1="180.001" y1="138" x2="0" y2="138"/>
	<line class="st5" x1="180.001" y1="126" x2="0" y2="126"/>
	<line class="st5" x1="180.001" y1="90" x2="0" y2="90"/>
	<circle class="st5" cx="90" cy="90" r="78"/>
	<circle class="st5" cx="90" cy="90" r="48"/>
	<circle class="st5" cx="90" cy="90" r="36"/>
</g>
<g id="Layer_2">
	<radialGradient id="SVGID_1_" cx="91.0005" cy="130.999" r="141.7357" gradientUnits="userSpaceOnUse">
		<stop  offset="0" style="stop-color:#5DD4F3"/>
		<stop  offset="1" style="stop-color:#469FB6"/>
	</radialGradient>
	<path class="st7" d="M180,45c0-23.844-18.295-43.454-41.748-45l0,0h-93C20.147,0,0,20.147,0,45v93.001h0.111
		C1.657,161.453,21.157,180,45,180h93v-0.11c22.458-1.48,40.408-19.43,41.889-41.889h0.111L180,45L180,45z"/>
	<g id="XMLID_2_">
		<g>
			<path class="st14" d="M137.98,85.374l-0.03,0.102c-0.73,1.811-21.93,3.273-47.97,3.273c-26.03,0-47.23-1.463-47.96-3.273
				l-0.03-0.102c0-1.862,21.49-3.375,47.99-3.375C116.49,81.999,137.98,83.512,137.98,85.374z"/>
			<path class="st4" d="M137.95,85.476l-2.97,11.711c0-1.862-20.14-3.375-44.99-3.375c-24.86,0-45,1.513-45,3.375l-2.97-11.711
				c0.73,1.811,21.93,3.273,47.96,3.273C116.02,88.749,137.22,87.286,137.95,85.476z"/>
			<path class="st8" d="M134.98,97.187v0.017l-0.03,0.102c-0.81,1.812-20.63,3.257-44.96,3.257c-24.29,0-44.07-1.44-44.97-3.246
				l-0.03-0.129c0-1.862,20.14-3.375,45-3.375C114.84,93.812,134.98,95.324,134.98,97.187z"/>
			<path class="st20" d="M134.95,97.305l-2.96,11.683c-0.07-1.855-18.86-3.363-42-3.363c-23.2,0-42,1.513-42,3.375l-2.97-11.684
				c0.9,1.806,20.68,3.246,44.97,3.246C114.32,100.562,134.14,99.116,134.95,97.305z"/>
			<path class="st2" d="M131.99,108.987v0.012l-0.05,0.169v0.006c-1.13,1.782-19.48,3.2-41.95,3.2c-22.6,0-41.02-1.429-41.96-3.229
				l-0.04-0.146c0-1.862,18.8-3.375,42-3.375C113.13,105.624,131.92,107.132,131.99,108.987z"/>
			<path class="st18" d="M131.94,109.174l-2.95,11.632c-0.03-1.861-17.49-3.369-39-3.369c-21.54,0-39,1.513-39,3.375l-2.96-11.666
				c0.94,1.8,19.36,3.229,41.96,3.229C112.46,112.374,130.81,110.956,131.94,109.174z"/>
			<path class="st10" d="M128.99,120.806v0.006l-0.04,0.157l-0.01,0.018c-1.05,1.782-18.09,3.2-38.95,3.2
				c-20.98,0-38.09-1.429-38.96-3.229l-0.04-0.146c0-1.862,17.46-3.375,39-3.375C111.5,117.437,128.96,118.944,128.99,120.806z"/>
			<path class="st16" d="M128.94,120.986l-2.95,11.638c0-1.862-16.12-3.375-36-3.375c-19.89,0-36,1.513-36,3.375l-2.96-11.666
				c0.87,1.8,17.98,3.229,38.96,3.229C110.85,124.187,127.89,122.769,128.94,120.986z"/>
			<path class="st1" d="M89.99,129.249c19.88,0,36,1.513,36,3.375c0,1.867-16.12,3.375-36,3.375c-19.89,0-36-1.508-36-3.375
				C53.99,130.762,70.1,129.249,89.99,129.249z"/>
		</g>
		<g>
		</g>
	</g>
	<g id="XMLID_1_" class="st12">
		<g>
			<path class="st20" d="M134.96,97.315l-2.97,11.684l-0.04,0.146c-0.94,1.8-19.36,3.229-41.96,3.229s-41.02-1.429-41.96-3.229
				l-0.04-0.146l-2.97-11.684c0.9,1.806,20.69,3.246,44.97,3.246S134.06,99.121,134.96,97.315z"/>
			<path class="st2" d="M131.95,109.146l-2.96,11.666l-0.04,0.146c-0.87,1.8-17.98,3.229-38.96,3.229s-38.09-1.429-38.96-3.229
				l-0.04-0.146l-2.96-11.666c0.94,1.8,19.36,3.229,41.96,3.229S131.01,110.945,131.95,109.146z"/>
			<path class="st18" d="M128.95,120.958l-2.96,11.666c0,1.867-16.12,3.375-36,3.375s-36-1.508-36-3.375l-2.96-11.666
				c0.87,1.8,17.98,3.229,38.96,3.229S128.08,122.758,128.95,120.958z"/>
		</g>
		<g>
		</g>
	</g>
	<g id="XMLID_3_" class="st11">
		<g>
			<path class="st19" d="M109.34,34.71c17.78-15.72,9.25-28.34,21.5-33.71h1.58c-11,4.62-3.37,20.37-19.37,36.37
				s-19.22,26.6-19.22,42.6c-1.34-0.01-2.7-0.01-4.08-0.01c-0.04,0-0.08,0-0.11,0c-0.3,0-0.6,0-0.91,0c-0.42,0-0.84,0-1.27,0
				c-0.34,0-0.68,0-1.02,0.01c-0.49,0-0.99,0-1.48,0c-2.04,0.011-4.04,0.04-6,0.07C78.96,54.58,94.26,48.04,109.34,34.71z"/>
			<path class="st3" d="M140.67,30.37c0,17.17-14.84,22.67-14.84,35.5c0,10.34,7.36,9.8,7.36,16.03
				c-7.12-1.07-21.91-1.83-39.36-1.931c0-16,3.22-26.6,19.22-42.6S121.42,5.62,132.42,1h6.64c10.68,0.71,18.75,5.22,26.11,12.08
				C155.17,8.96,140.67,15.3,140.67,30.37z"/>
			<path class="st3" d="M130.84,1c-12.25,5.37-3.72,17.99-21.5,33.71C94.26,48.04,78.96,54.58,78.96,80.04
				c-15.73,0.26-28.5,1.06-34.11,2.1c0-13.64,8.99-19.93,20.16-24.27c0-10.16,3.16-15.66,23-25.33
				c19.83-9.67,3.65-26.59,21.32-31.54H130.84z"/>
		</g>
		<g>
		</g>
	</g>
</g>
<g id="Layer_3" class="st17">
	<rect x="490.104" y="-4.263" class="st6" width="180" height="180"/>
	<g class="st13">
		<path class="st15" d="M534.647,0.947c-18.411,0-42.543,16.334-42.543,40.093c0,15.308,10.306,17.722,16.775,17.722
			c-0.637-1.696-3.451-3.979-3.451-13.312c0-13.896,7.077-31.155,20.54-31.155c1.045,0,2.151,0.252,2.698,1.186l-22.909,107.666
			h23.741l13.132-61.719c4.104-0.374,9.709,0.66,17.488,0.66c8.329,0,8.329-7.861,8.329-13.394H545.34l6.884-32.344
			c0.722-0.102,1.442-0.171,2.156-0.171c9.864,0,8.396,2.451,16.022,3.571c9.727,1.429,20.139-1.27,20.139-18.266
			C567.707,1.484,553.058,0.947,534.647,0.947z"/>
		<path class="st15" d="M619.977,45.921c-29.551,0-58.734,11.053-58.734,40.093c0,15.307,10.306,17.722,16.775,17.722
			c-0.637-1.696-1.905-4.218-1.905-13.552c0-13.895,11.313-37.307,39.196-37.307c22.381,0,28.505,10.673,26.729,44.356
			c-1.451,27.54-14.213,57.372-31.184,57.372c-3.328,0-6.079-0.853-8.42-4.337l18.562-87.232h-23.741l-22.359,105.082h23.741
			l1.091-5.128c4.221,4.745,11.75,7.538,19.396,7.538c27.26,0,48.907-32.384,48.979-78.1
			C668.16,56.38,643.206,45.921,619.977,45.921z"/>
	</g>
</g>
</svg>
